<svg width="998" height="610" viewBox="0 0 998 610" fill="none" xmlns="http://www.w3.org/2000/svg">
<g clip-path="url(#clip0_1_2)">
<path d="M589.122 0.860291C559.87 2.93347 530.335 6.9856 488.949 14.5245C405.613 29.8849 365.639 36.3871 334.693 39.8738C306.382 42.9836 223.328 44.8683 186.551 43.0779C153.724 41.5701 105.849 41.5701 93.4329 43.0779C47.1561 48.6378 15.2702 63.527 5.58216 84.0704C0.314875 95.096 -0.155418 98.9597 0.0326997 129.398C0.220817 173.217 2.29011 268.019 3.23069 277.819C3.70099 282.719 4.26534 326.633 4.54751 375.353C5.01781 462.804 5.77028 490.98 8.30986 503.137C10.9435 515.953 17.9038 524.999 29.7552 530.842C43.5818 537.533 56.3738 539.04 90.1409 537.815C103.967 537.25 120.616 536.025 130.586 534.706C139.992 533.481 147.893 532.915 148.363 533.386C148.927 533.763 149.868 536.213 150.526 538.758C158.898 571.835 186.269 598.974 219.942 607.738C227.09 609.623 230.664 610 243.456 610C256.248 610 259.729 609.717 266.501 607.833C283.713 603.121 302.431 591.624 315.317 577.866C323.688 568.913 329.332 559.49 333.753 547.239L336.857 538.381L340.995 538.664C359.995 539.7 455.841 539.794 496.944 538.758C524.786 538.004 585.548 537.438 640.102 537.438H734.725L737.64 544.977C745.541 565.803 766.046 588.326 786.363 598.597C805.833 608.398 824.362 611.414 844.115 608.115C868.382 604.063 881.08 598.597 893.119 587.006C907.228 573.531 916.822 559.678 921.619 545.92L923.594 540.266L931.025 539.7C944.381 538.758 960.465 533.575 970.718 526.978C984.45 518.214 993.292 503.325 996.49 483.724C998.089 473.735 997.807 443.957 996.019 433.12C993.01 414.932 986.802 399.666 978.713 390.808C975.703 387.509 972.975 383.175 971.094 378.557C956.985 344.632 927.451 316.456 898.951 309.765C894.342 308.634 888.981 307.409 887.005 306.844C885.03 306.372 882.491 304.865 881.362 303.545C878.446 300.153 855.684 280.458 844.773 271.976C834.803 264.155 810.16 246.91 790.689 234.188C783.823 229.759 778.18 225.612 778.18 225.047C778.18 224.576 779.779 224.105 781.754 224.105C787.115 224.105 801.976 221.372 811.1 218.733C823.046 215.341 830.852 210.723 838.942 202.619C849.946 191.499 856.719 180.379 862.08 164.453C864.525 157.103 865.09 153.993 865.466 143.627C866.124 125.628 863.115 112.435 854.273 94.9075C840.541 67.3907 809.971 43.2664 768.303 26.8693C730.022 11.8859 695.878 4.34698 649.413 0.766052C635.022 -0.270569 605.206 -0.270569 589.122 0.860291ZM664.839 53.4438C693.903 56.9305 736.888 65.506 752.972 71.0659C765.858 75.4949 787.774 86.1436 797.838 92.8344C818.813 106.781 828.501 121.765 828.407 140.235C828.407 146.266 827.843 149.564 826.244 153.616C823.422 160.873 817.026 169.26 811.382 172.935C803.764 177.929 798.873 178.777 771.972 179.814C758.615 180.285 738.957 181.51 728.329 182.547C704.908 184.808 685.908 186.128 657.314 187.353C617.339 189.143 609.25 190.651 605.206 197.059C602.102 202.148 599.468 213.645 598.528 226.932C597.869 234.942 597.587 287.62 597.775 370.453L598.057 501.158H584.043H570.028L570.498 453.286C571.251 374.411 569.37 281.589 566.454 253.789C564.761 237.957 560.34 227.12 552.627 220.147C542.187 210.629 526.667 207.142 495.063 207.142C445.588 207.142 424.519 211.666 410.975 225.236C401.851 234.471 398.183 243.988 396.302 263.966C394.985 276.688 395.079 345.575 396.302 366.966C397.336 384.871 399.217 498.519 398.465 499.273C398.183 499.556 386.331 500.027 372.035 500.31C357.738 500.687 344.381 501.252 342.5 501.629C340.525 502.006 338.926 502.1 338.926 501.817C338.926 499.179 335.822 486.174 333.941 481.368C320.773 446.407 296.317 425.204 262.738 419.455C229.536 413.895 201.788 423.225 177.051 448.386C164.917 460.731 156.264 475.337 152.596 489.661C151.937 492.394 150.903 495.032 150.338 495.504C149.68 496.069 144.695 495.786 137.64 495.032C131.15 494.279 119.111 493.148 110.834 492.677C88.5419 491.263 58.6312 488.813 54.8689 488.059L51.5768 487.399L51.4828 450.742C51.3887 409.372 49.6957 333.607 48.2848 306.561C45.6511 254.543 44.5224 217.131 44.4284 175.102C44.4284 127.984 45.369 108.666 47.8145 104.802C49.1313 102.729 57.8787 99.2424 69.8242 95.9441C83.1805 92.3632 94.5616 91.892 140.933 92.7401C233.016 94.4363 283.431 93.0228 336.104 86.9917C342.594 86.2379 359.337 84.5416 373.257 83.2223C424.143 78.322 424.707 78.2278 499.296 64.4694C538.706 57.2133 565.419 53.7265 598.528 51.2764C611.132 50.4283 649.507 51.6533 664.839 53.4438ZM668.601 222.126C681.017 223.162 699.17 224.293 708.953 224.576L726.824 225.141L736.7 235.601C746.388 245.873 771.407 268.019 787.586 280.646C799.719 290.258 811.853 298.268 828.501 307.88C836.778 312.686 844.397 317.398 845.432 318.435C847.031 320.037 847.313 321.639 847.407 334.549C847.501 346.14 847.877 350.475 849.476 356.506C853.897 372.526 863.773 388.358 877.317 400.985C893.59 416.063 908.827 421.057 939.208 421.057H953.975L955.01 424.921C958.866 439.339 959.713 445.37 959.713 461.767C959.713 486.363 958.114 491.357 948.52 497.106C943.629 500.027 938.832 501.346 929.426 502.477L925.005 503.042L924.441 499.461C923.312 492.771 919.268 479.484 916.446 473.264C903.56 444.711 869.699 420.963 836.778 417.288C803.011 413.613 769.808 427.842 749.492 454.794C739.522 467.987 731.15 487.494 731.15 497.388V499.933L696.631 500.215C677.537 500.404 656.562 500.592 649.79 500.592L637.562 500.687L637.75 496.446C638.503 483.159 638.691 246.721 637.938 235.036C637.468 227.403 637.28 220.712 637.562 220.335C637.844 219.958 639.819 219.77 641.983 219.958C644.24 220.147 656.186 221.183 668.601 222.126ZM505.786 245.779C523.375 246.91 525.914 247.381 527.137 249.831C527.702 250.868 529.206 257.087 530.429 263.589C533.533 280.363 534.474 310.142 534.756 414.272L535.038 500.404L482.365 500.215C453.489 500.215 429.598 500.027 429.41 499.838C428.658 498.99 431.197 266.322 432.044 259.914C433.549 249.454 435.712 247.946 451.796 245.873C460.45 244.742 489.232 244.742 505.786 245.779ZM903.372 347.082C910.708 351.04 914 353.585 922.56 362.16C931.683 371.301 940.149 382.609 938.832 383.834C937.985 384.777 919.079 377.803 914 374.788C903.936 368.757 894.906 356.035 893.307 345.763C892.555 340.957 891.802 340.863 903.372 347.082ZM260.763 452.249C272.897 455.642 281.926 460.919 291.05 469.966C301.114 480.049 305.253 487.87 307.51 501.158C310.708 520.005 305.629 537.062 291.803 554.495C281.832 567.029 269.511 573.908 251.922 576.546C239.318 578.431 228.407 576.735 215.803 570.704C200.001 563.165 187.868 546.674 184.105 527.732C182.036 516.895 182.6 500.875 185.422 493.148C188.62 484.572 195.863 473.264 201.694 467.798C216.462 454.04 242.61 447.161 260.763 452.249ZM847.125 452.721C855.402 454.605 858.788 456.019 866.219 460.731C878.634 468.646 891.332 486.08 895.283 500.687C897.634 509.45 897.258 521.23 894.248 529.617C890.486 540.077 885.689 548.653 880.704 553.741C875.907 558.642 860.951 566.652 851.639 569.384C842.61 572.023 829.818 571.081 815.991 566.652C795.298 560.055 779.591 543.658 774.417 523.209C769.62 504.55 774.417 482.405 786.175 469.4C800.472 453.474 823.046 447.255 847.125 452.721Z" fill="#190E00"/>
<path d="M632.859 71.9139C611.131 75.0237 603.889 80.5836 599.374 97.4518C596.741 107.535 596.364 127.89 598.716 135.523C602.572 147.962 609.721 155.595 620.914 159.176C626.557 161.061 629.097 161.249 645.745 161.155C674.621 160.967 704.25 158.328 715.631 154.936C721.556 153.145 727.576 148.056 730.116 142.779C732.749 137.313 733.878 125.346 732.843 113.001C731.527 95.4728 728.423 87.4628 720.898 81.9971C716.665 78.8873 700.299 73.9871 689.67 72.4793C676.973 70.7831 643.3 70.4061 632.859 71.9139ZM696.537 109.043C702.274 109.231 703.215 111.022 702.462 119.88C702.086 124.12 701.428 127.89 700.957 128.361C699.264 130.246 658.631 128.832 642.077 126.476L638.032 125.911V117.712C638.032 113.189 638.22 109.231 638.503 108.949C638.973 108.477 685.062 108.572 696.537 109.043Z" fill="#190E00"/>
<path d="M112.245 104.048C100.769 104.896 92.3042 106.404 83.5567 109.137C76.032 111.587 73.7746 112.812 70.3885 116.111C62.5817 124.026 59.5718 139.01 61.2648 161.721C62.5817 177.929 64.5569 183.96 70.8588 190.18C79.5122 198.944 90.9874 201.111 119.299 199.603C155.135 197.624 164.729 194.232 170.091 181.322C172.536 175.573 173.947 152.014 172.724 138.162C171.219 121.388 167.363 112.341 160.026 108.572C153.913 105.462 127.952 103.012 112.245 104.048ZM143.754 146.077C144.13 151.92 144.225 158.799 144.036 161.438L143.754 166.15L139.992 165.961C137.923 165.867 128.235 165.49 118.358 165.113C108.576 164.736 99.5467 164.076 98.3239 163.7C96.2546 162.851 96.1606 162.569 96.4428 151.826L96.7249 140.706L110.834 139.952C118.641 139.575 128.799 138.444 133.408 137.502C138.111 136.56 142.155 135.712 142.531 135.617C142.814 135.617 143.378 140.329 143.754 146.077Z" fill="#190E00"/>
<path d="M232.169 220.335C219.001 221.183 199.907 223.728 192.665 225.612C184.764 227.591 174.135 233.151 169.526 237.58C161.908 244.931 159.744 253.129 156.828 285.923C154.383 313.346 156.076 327.104 163.224 338.413C169.15 347.836 178.368 352.454 194.358 354.15C207.62 355.563 296.411 353.867 315.599 351.794C350.683 348.025 363.381 340.015 364.98 320.602C365.262 316.644 364.698 306.372 363.475 294.31C357.738 239.182 357.455 237.58 351.248 230.513C343.441 221.56 333.941 220.147 282.02 219.864C260.293 219.77 237.907 219.958 232.169 220.335ZM332.06 259.631C333 263.401 332.906 285.452 331.966 301.661C331.119 314.759 331.025 315.702 329.05 316.456C325.005 317.963 303.278 319.377 275.907 319.942C252.862 320.319 244.021 320.037 223.798 318.435C209.972 317.304 198.873 315.984 198.12 315.419C197.085 314.477 196.897 309.294 197.085 287.902L197.368 261.422L200.189 260.668C201.788 260.197 226.338 259.631 254.743 259.349C283.243 259.066 310.332 258.595 314.941 258.124C330.649 256.71 331.307 256.71 332.06 259.631Z" fill="#190E00"/>
<path d="M669.26 241.161C666.062 242.669 662.488 245.213 661.171 246.721C656.374 252.47 655.903 263.118 659.29 289.598C662.205 312.592 666.814 329.931 672.082 338.413C680.453 351.606 697.948 355.563 749.021 355.563C777.427 355.563 784.576 355.092 803.858 351.606C816.65 349.344 821.541 345.103 822.199 335.303C822.857 326.916 818.907 319.377 808.372 308.917C798.59 299.21 776.863 281.871 762.66 272.636C738.863 257.087 708.106 242.386 693.715 239.559C682.24 237.392 675.938 237.769 669.26 241.161ZM700.675 281.023C716.947 286.583 750.244 305.618 768.303 319.848C778.838 328.047 779.308 328.706 774.888 328.706C771.219 328.706 743.002 325.596 712.809 321.827L695.878 319.754L695.314 303.734C695.032 294.876 694.467 285.735 693.997 283.19C693.621 280.74 693.527 278.761 693.715 278.761C693.997 278.761 697.101 279.798 700.675 281.023Z" fill="#190E00"/>
<path d="M450.385 356.412C438.44 361.689 439.663 377.143 452.455 382.044C459.979 384.965 471.831 382.326 477.568 376.672C480.954 373.186 481.143 372.714 480.672 368.662C480.014 362.725 476.628 359.333 468.915 356.977C461.955 354.81 454.43 354.621 450.385 356.412Z" fill="#190E00"/>
<path d="M236.402 471.096C220.318 473.829 204.704 488.342 199.625 505.116C196.615 514.916 197.274 526.696 201.318 535.365C210.724 555.343 231.605 564.39 253.333 557.793C275.436 551.103 287.006 534.611 286.065 511.147C285.783 503.325 285.218 500.686 283.243 496.257C275.342 479.201 254.367 467.987 236.402 471.096ZM256.342 497.106C260.857 501.817 262.08 508.602 259.54 514.633C257.941 518.591 250.323 525.376 246.654 526.13C242.14 527.167 235.461 523.303 232.828 518.12C229.63 511.901 230.288 505.116 234.521 500.686C238.847 496.257 242.61 494.561 248.724 494.561C253.144 494.561 254.273 494.938 256.342 497.106Z" fill="#190E00"/>
<path d="M821.917 466.667C802.259 471.568 788.526 489.755 788.526 510.958C788.526 524.434 792.853 534.611 802.447 543.752C812.041 552.987 820.976 556.286 834.615 555.626C847.407 554.966 854.931 551.48 863.397 542.244C869.887 535.083 873.461 528.957 875.53 520.853C879.575 505.869 874.308 488.719 862.644 478.07C850.417 467.044 836.308 463.086 821.917 466.667ZM846.184 498.425C853.332 503.985 850.699 516.518 841.857 519.911C834.991 522.549 825.867 519.816 824.645 514.822C823.61 510.864 824.927 504.927 827.278 502.383C832.357 496.823 841.763 494.844 846.184 498.425Z" fill="#190E00"/>
</g>
<defs>
<clipPath id="clip0_1_2">
<rect width="998" height="610" fill="white"/>
</clipPath>
</defs>
</svg>
