<svg width="1169" height="1148" viewBox="0 0 1169 1148" fill="none" xmlns="http://www.w3.org/2000/svg">
<path d="M750 345L601.5 30H560L514.5 147.5L438.5 383H351L24.5 417L47 463L294 675.5V782L206.5 1074.5L233 1101L533.5 956.5L658.5 926L901.5 1074.5L1019.5 1120L901.5 804.5V725L1141 463V417L1099 383L750 345Z" fill="#FCC87A" stroke="#FCC87A"/>
<path d="M579.665 0.846447C564.997 4.17529 554.226 12.9792 543.192 30.6308C534.96 43.9024 521.606 70.9711 513.024 91.9515C510.528 98.0836 505.624 110.304 504.004 114.509C503.172 116.655 501.727 120.334 500.852 122.612C499.188 126.948 497.48 131.372 494.722 138.38C492.62 143.768 487.716 156.645 486.403 160.28C485.833 161.857 484.476 165.58 483.338 168.602C478.828 180.779 468.495 211.045 463.722 226.2C461.577 233.033 457.154 248.144 455.096 255.766C454.352 258.525 453.345 262.073 452.907 263.65C451.769 267.592 446.602 288.178 445.245 294.31C440.998 313.232 437.539 333.73 434.736 356.2C434.036 361.982 433.16 363.997 431.015 364.741C430.139 365.048 425.06 365.048 415.164 364.741C399.665 364.259 355.135 364.478 318.925 365.267C307.234 365.486 286.743 365.88 273.389 366.143C260.034 366.406 245.848 366.8 241.863 367.019C237.879 367.282 227.765 367.851 219.314 368.333C210.907 368.815 200.443 369.515 196.108 369.866C191.773 370.216 183.498 370.917 177.718 371.399C159.635 372.888 147.857 373.983 137.436 375.122C89.6667 380.334 47.458 389.313 28.4115 398.336C4.02323 409.812 -5.25919 430.048 2.88482 453.963C7.96388 468.943 20.0485 485.587 35.4171 498.815C45.9255 507.881 66.8109 522.598 89.0537 536.702C138.881 568.195 155.432 579.802 189.978 607.44C236.128 644.364 265.245 673.885 275.359 694.034C282.408 708.094 282.014 722.854 273.87 750.273C267.39 772.174 263.012 784.175 244.272 831.085C226.145 876.55 223.386 883.602 215.242 905.765C209.813 920.438 204.734 936.907 196.809 965.553C187.307 999.936 182.184 1028.32 180.083 1058.63C179.251 1070.85 180.083 1083.9 182.36 1092.71C186.913 1110.62 200.355 1123.59 218.001 1127.13C242.389 1132 272.951 1123.23 350.669 1088.94C360.258 1084.73 366.738 1081.76 389.419 1071.33C396.994 1067.83 433.992 1049.26 443.493 1044.13C448.091 1041.68 461.62 1034.28 473.574 1027.71C485.571 1021.09 501.946 1012.24 509.915 1008C534.128 995.162 540.127 992.009 553.613 984.825C589.691 965.509 609.876 956.486 628.047 951.493C637.286 948.909 643.022 948.12 650.596 948.339C656.726 948.515 657.471 948.646 661.805 950.135C674.941 954.559 695.17 966.867 739.261 997.177C745.873 1001.73 753.754 1007.12 756.775 1009.18C759.796 1011.24 767.984 1016.89 774.946 1021.66C811.419 1046.8 843.075 1067.91 871.93 1086.35C873.988 1087.67 880.774 1092.05 887.035 1096.08C918.21 1116.23 933.097 1124.77 950.962 1132.78C966.505 1139.75 984.807 1145.62 996.323 1147.28C1014.49 1149.95 1028.64 1145.14 1036.56 1133.48C1040.33 1128.01 1041.9 1122.27 1041.86 1114.26C1041.86 1105.76 1040.11 1097.96 1033.93 1078.34C1026.36 1054.47 1020.27 1037.43 1001.31 987.453C998.731 980.708 996.279 974.182 995.841 972.999C995.403 971.773 990.631 959.377 985.201 945.361C976.795 923.724 971.978 910.978 962.784 886.274C952.538 858.811 943.825 833.801 938.921 817.945C938.264 815.755 936.907 811.419 935.943 808.309C926.442 777.517 922.414 756.187 923.99 744.974C925.172 736.608 927.493 730.957 933.185 722.416C943.781 706.561 958.843 690.749 1035.29 615.149C1108.28 542.966 1139.06 508.407 1155.92 479.718C1161.83 469.687 1166.47 457.949 1168.18 448.707C1169.27 442.838 1169.27 432.851 1168.18 426.807C1163.76 402.41 1150.27 384.933 1126.93 373.239C1116.73 368.114 1105.3 364.347 1084.29 359.135C1057.88 352.565 1037.92 349.236 1005.91 345.995C1000.96 345.513 996.367 344.987 995.622 344.9C994.922 344.768 989.58 344.286 983.8 343.805C978.021 343.323 971.541 342.71 969.351 342.491C965.104 342.009 941.022 340.125 930.602 339.425C927.099 339.206 918.648 338.811 911.774 338.548C904.9 338.286 893.472 337.804 886.379 337.453C879.286 337.103 870.923 336.709 867.77 336.577C844.827 335.526 809.405 332.154 796.838 329.745C778.186 326.197 768.772 320.765 761.066 309.158C754.454 299.259 745.041 278.761 735.933 254.451C734.62 250.947 733.263 247.4 732.912 246.567C732.562 245.735 730.198 239.516 727.658 232.77C725.075 226.025 722.535 219.323 721.966 217.878C721.397 216.433 720.215 213.367 719.339 211.089C709.443 185.378 691.973 141.928 681.246 116.261C666.622 81.1766 657.865 63.0432 646.087 43.333C630.368 17.0964 616.094 4.35049 598.186 0.671245C593.501 -0.292367 584.262 -0.204766 579.665 0.846447ZM591.706 55.1153C596.084 59.8896 607.818 80.6072 615.481 96.9448C619.859 106.318 625.201 118.714 631.331 133.562C631.856 134.876 633.433 138.731 634.834 142.103C636.235 145.476 638.205 150.294 639.212 152.834C640.219 155.375 641.971 159.58 643.065 162.251C647.707 173.64 650.421 180.297 656.945 196.635C660.711 206.14 665.045 217.046 666.534 220.813C667.979 224.623 670.387 230.755 671.788 234.391C673.233 238.07 676.517 246.611 679.1 253.356C681.684 260.102 684.442 267.285 685.23 269.344C695.432 296.018 705.941 318.794 713.778 331.409C721.003 342.972 729.147 352.039 737.991 358.346C743.027 361.938 753.185 367.15 759.402 369.296C779.587 376.305 813.258 381.385 858.575 384.32C880.424 385.722 881.956 385.765 896.887 386.291C903.761 386.554 914.489 387.036 920.75 387.386C927.011 387.736 938.921 388.35 947.24 388.7C981.918 390.233 1008.89 392.511 1042.47 396.803C1044.4 397.066 1049.92 397.767 1054.73 398.38C1092.61 403.154 1105.48 406.79 1116.34 415.813C1128.6 425.974 1128.33 434.997 1115.16 454.62C1105.52 468.986 1093.7 483.922 1075.14 505.209C1049.61 534.381 1032.66 551.769 993.433 588.868C968.388 612.565 955.384 625.135 944.438 636.129C921.232 659.563 905.775 678.178 889.05 702.75C883.533 710.853 878.103 721.365 875.52 729.03C868.427 750.011 870.134 771.429 882.219 812.689C883.358 816.544 884.452 820.398 884.715 821.23C885.853 825.348 892.465 845.934 895.968 856.271C900.04 868.36 904.374 880.492 911.555 899.852C913.876 906.116 916.24 912.511 916.809 914.087C918.167 917.942 922.589 929.724 923.377 931.608C923.727 932.44 925.566 937.258 927.493 942.339C929.419 947.376 932.09 954.384 933.448 957.888C934.805 961.392 936.381 965.422 936.95 966.867C939.577 973.569 949.648 999.893 954.771 1013.51C973.686 1063.58 981.173 1085 980.867 1088.06L980.735 1089.51L978.064 1089.46C975.569 1089.42 974.693 1089.11 966.024 1084.78C955.034 1079.35 949.254 1076.06 935.856 1067.7C912.168 1052.89 855.554 1015.84 831.647 999.498C825.342 995.206 788.826 970.108 774.946 960.56C730.854 930.25 710.713 917.679 692.98 909.357C671.526 899.283 653.355 896.786 630.455 900.684C611.934 903.838 592.8 910.189 569.813 920.789C556.765 926.79 551.861 929.286 528.217 941.901C524.977 943.653 514.031 949.434 503.917 954.778C470.071 972.736 461.752 977.204 442.18 988.11C433.817 992.753 423.308 998.447 407.371 1006.94C404.131 1008.65 393.972 1013.78 384.821 1018.33C333.505 1043.74 267.302 1071.64 244.928 1077.24C238.185 1078.91 235.12 1078.78 233.807 1076.81C232.45 1074.75 232.143 1070.1 232.625 1060.91C234.07 1036.03 239.061 1009.57 249.394 972.561C250.62 968.225 251.934 963.407 252.372 961.83C258.37 939.842 266.383 917.11 281.489 879.047C284.203 872.17 291.078 854.825 296.77 840.503C302.462 826.18 307.322 813.959 307.585 813.39C309.38 809.098 315.772 791.358 318.969 781.81C326.544 759.034 330.791 742.346 332.586 728.373C333.243 722.898 333.243 706.385 332.542 701.655C329.609 681.682 321.202 665.344 302.199 642.656C282.364 618.959 250.796 590.402 208.368 557.77C181.352 537.009 164.145 525.139 122.987 499.077C103.284 486.55 89.0099 476.871 77.6696 468.242C59.3237 454.357 49.4721 445.509 47.5455 441.348C46.5385 439.246 46.5385 439.202 47.3704 437.844C49.7348 433.727 65.6287 430.924 120.798 424.836C132.664 423.522 150.309 421.857 165.021 420.674C198.472 417.959 209.55 417.17 238.798 415.418C253.817 414.499 279.956 412.703 289.589 411.914C294.055 411.564 302.418 410.951 308.198 410.6C313.977 410.206 320.676 409.724 323.085 409.505C325.493 409.286 332.411 408.805 338.409 408.41C344.452 408.016 352.815 407.447 357.018 407.096C361.221 406.746 369.322 406.177 374.97 405.782C380.618 405.432 388.499 404.819 392.484 404.468C396.468 404.118 402.686 403.636 406.276 403.373C418.755 402.497 440.034 400.22 448.003 398.949C460.832 396.891 466.349 395.051 470.158 391.547C474.318 387.736 475.325 382.393 472.873 377.4C471.253 374.071 468.67 372.056 463.021 369.647C459.519 368.201 458.555 367.588 458.336 366.756C458.074 365.705 458.643 363.778 462.452 353.397C465.605 344.768 470.027 331.497 474.099 318.4C481.105 295.624 489.249 271.709 494.503 258.394C495.51 255.853 496.692 252.787 497.13 251.604C497.568 250.378 499.801 244.684 502.078 238.902C511.097 216.126 514.425 207.673 520.03 193.35C535.923 152.615 549.015 122.656 565.872 88.6665C576.425 67.3356 582.423 56.7797 585.532 53.9327C587.677 51.9617 589.078 52.2683 591.706 55.1153Z" fill="#00624D"/>
</svg>
